<svg xmlns="http://www.w3.org/2000/svg" width="122.55" height="45.157" viewBox="0 0 122.55 45.157"><path d="M122.4,31.7l-3.4-3a8.968,8.968,0,0,0,1.4-4.8h0V13a8.92,8.92,0,0,0-8.9-8.9h-3A8.92,8.92,0,0,0,99.6,13V23.9a8.92,8.92,0,0,0,8.9,8.9h3a7.267,7.267,0,0,0,2.5-.4l.4.4a5.681,5.681,0,0,0,8-.4h0a.483.483,0,0,0,0-.7Zm-16.8-7.8V13a3.1,3.1,0,0,1,3-3.1h3a3.031,3.031,0,0,1,3,3.1V23.9a1.952,1.952,0,0,1-.1.7,3.169,3.169,0,0,0-3.9.4,2.792,2.792,0,0,0-.8,2h-1.1A3.114,3.114,0,0,1,105.6,23.9Z" fill="#fff"/><path d="M92.1,15.8a8.954,8.954,0,1,0-6.2,16.8,9.121,9.121,0,0,0,6.1,0v3.6h0a3.116,3.116,0,0,1-3.1,3.1,2.792,2.792,0,0,1-2-.8l-.2-.2-1-1-.5-.5a2.961,2.961,0,0,0-4.1-.1,2.869,2.869,0,0,0-.1,4.1l.1.1,1.5,1.5.3.3a8.84,8.84,0,0,0,9.9,1.6,10.908,10.908,0,0,0,1.1-.6,9.076,9.076,0,0,0,4-7.5v-12A8.883,8.883,0,0,0,92.1,15.8ZM89,27.3h0a3.1,3.1,0,1,1,3.1-3.1A3.116,3.116,0,0,1,89,27.3Z" fill="#fff"/><path d="M69.7,15a8.92,8.92,0,0,0-8.9,8.9h0v8.3a.645.645,0,0,0,.6.6H66a.645.645,0,0,0,.6-.6V23.9a3.1,3.1,0,1,1,6.2,0v8.3a.645.645,0,0,0,.6.6H78a.645.645,0,0,0,.6-.6V23.9A8.92,8.92,0,0,0,69.7,15Z" fill="#fff"/><path d="M55,17.5a3.185,3.185,0,0,0-3.2,3V32.4a.472.472,0,0,0,.5.5h5.2a.472.472,0,0,0,.5-.5V20.6A3.031,3.031,0,0,0,55,17.5Z" fill="#fff"/><circle cx="3.1" cy="3.1" r="3.1" transform="translate(51.8 9.9)" fill="#fff"/><path d="M48.5,27H43.8a2.112,2.112,0,0,1-2.1-2.1h0V9.4a2.971,2.971,0,0,0-2.8-3,2.906,2.906,0,0,0-3,2.8V27a5.911,5.911,0,0,0,5.9,5.9h6.7a.645.645,0,0,0,.6-.6h0V27.6A.576.576,0,0,0,48.5,27Z" fill="#fff"/><path d="M9609.7-8354.2a1.136,1.136,0,0,1-.8-.3c-.028-.03-.546-.585-1.381-1.477-3.976-4.251-14.536-15.542-14.617-15.623a9.522,9.522,0,0,1-2.276-3.1,8.368,8.368,0,0,1-.625-3.4v-.1a8.867,8.867,0,0,1,8.3-8.8h12.4a8.682,8.682,0,0,1,5.763,2.537A8.681,8.681,0,0,1,9619-8378.7a8.737,8.737,0,0,1-8.2,9.2v14.3A1.172,1.172,0,0,1,9609.7-8354.2Zm-9.439-28.293a4.249,4.249,0,0,0-4.307,4.181,4.147,4.147,0,0,0,1.079,2.783l9.879,11.294v-8.614a1.155,1.155,0,0,1,1.171-1.276,4.252,4.252,0,0,0,4.309-4.187,4.248,4.248,0,0,0-4.3-4.181Z" transform="translate(-9590 8387)" fill="#fff"/></svg>